<?xml version="1.0" encoding="UTF-8" standalone="no"?>
<svg viewBox="0 0 39 38" version="1.1" xmlns="http://www.w3.org/2000/svg" xmlns:xlink="http://www.w3.org/1999/xlink">
  <path d="M36.5460071,18.881534 C35.4131151,17.748642 35.2242997,16.0493039 35.9795611,14.5387812 C36.5460071,13.5947045 36.5460071,12.2729971 36.1683764,11.3289204 C35.6019304,10.1960284 34.846669,9.44076702 33.713777,9.25195168 C32.0144389,8.874321 30.8815469,7.55261362 30.6927316,5.85327555 C30.6927316,4.72038351 29.9374702,3.58749147 28.9933935,3.02104545 C28.0493168,2.45459943 26.9164247,2.26578409 25.7835327,2.64341477 C24.27301,3.20986079 22.5736719,2.64341477 21.6295952,1.32170738 C21.0631492,0.566446021 19.9302572,0 18.7973651,0 C17.6644731,0 16.531581,0.566446021 15.965135,1.51052272 C14.832243,2.64341477 13.3217202,3.20986079 11.8111975,2.64341477 C10.6783055,2.26578409 9.54541343,2.45459943 8.41252138,3.02104545 C7.46844468,3.58749147 6.90199866,4.72038351 6.90199866,5.85327555 C6.71318332,7.55261362 5.58029128,8.874321 4.06976855,9.06313634 C2.93687651,9.44076702 1.99279981,10.1960284 1.42635379,11.1401051 C1.0487231,12.2729971 1.0487231,13.4058892 1.61516913,14.5387812 C2.37043049,16.0493039 2.18161515,17.748642 1.0487231,18.881534 C0.293461743,19.6367954 -0.084168938,20.7696875 0.104646402,21.9025795 C0.293461743,23.0354715 0.859907764,23.9795482 1.99279981,24.5459943 C3.31450719,25.3012556 4.06976855,27.0005937 3.88095321,28.5111164 C3.69213787,29.6440085 3.88095321,30.7769005 4.63621457,31.7209772 C5.39147594,32.6650539 6.52436798,33.0426846 7.65726002,33.0426846 C9.16778274,32.8538692 10.6783055,33.9867613 11.2447515,35.497284 C11.6223822,36.630176 12.5664589,37.3854374 13.6993509,37.7630681 C14.832243,38.1406988 15.965135,37.9518834 16.9092117,37.1966221 C18.2309191,36.2525454 19.9302572,36.2525454 21.2519645,37.1966221 C22.1960412,37.9518834 23.3289333,38.1406988 24.4618253,37.7630681 C25.5947174,37.3854374 26.3499787,36.630176 26.9164247,35.497284 C27.4828708,33.9867613 28.9933935,33.0426846 30.5039162,33.0426846 C31.6368083,33.0426846 32.7697003,32.6650539 33.5249617,31.7209772 C34.280223,30.7769005 34.6578537,29.6440085 34.280223,28.5111164 C33.9025923,27.0005937 34.6578537,25.3012556 36.1683764,24.5459943 C37.1124531,23.9795482 37.8677145,23.0354715 38.0565298,21.9025795 C37.8677145,20.7696875 37.4900838,19.6367954 36.5460071,18.881534 Z M27.1052401,13.5947045 L18.6085498,25.6788863 C18.4197344,26.056517 18.0421037,26.2453323 17.6644731,26.2453323 C17.2868424,26.2453323 16.9092117,26.2453323 16.531581,26.056517 L10.8671208,21.9025795 C10.4894901,21.7137642 10.3006748,21.3361335 10.3006748,20.9585028 C10.3006748,20.5808721 10.3006748,20.2032414 10.4894901,19.8256107 C10.6783055,19.4479801 11.0559361,19.2591647 11.6223822,19.2591647 C12.0000129,19.2591647 12.1888282,19.4479801 12.5664589,19.6367954 L17.098027,23.0354715 L24.839456,12.2729971 C25.0282713,11.8953664 25.405902,11.7065511 25.7835327,11.7065511 C26.1611634,11.7065511 26.5387941,11.7065511 26.9164247,11.8953664 C27.2940554,12.0841818 27.4828708,12.4618125 27.4828708,12.8394432 C27.4828708,13.2170738 27.2940554,13.4058892 27.1052401,13.5947045 Z" id="Shape"></path>
</svg>
